<svg width="14" height="14" viewBox="0 0 14 14" fill="none" xmlns="http://www.w3.org/2000/svg">
<path d="M8.33333 1.66667H13M8.33333 5H13M8.33333 9H13M8.33333 12.3333H13M1.66667 1H5C5.36819 1 5.66667 1.29848 5.66667 1.66667V5C5.66667 5.36819 5.36819 5.66667 5 5.66667H1.66667C1.29848 5.66667 1 5.36819 1 5V1.66667C1 1.29848 1.29848 1 1.66667 1ZM1.66667 8.33333H5C5.36819 8.33333 5.66667 8.63181 5.66667 9V12.3333C5.66667 12.7015 5.36819 13 5 13H1.66667C1.29848 13 1 12.7015 1 12.3333V9C1 8.63181 1.29848 8.33333 1.66667 8.33333Z" stroke="black" stroke-linecap="round" stroke-linejoin="round"/>
</svg>
