<svg width="16" height="16" viewBox="0 0 16 16" fill="none" xmlns="http://www.w3.org/2000/svg">
<path d="M10.6667 14V12.6667C10.6667 11.9594 10.3857 11.2811 9.88562 10.781C9.38552 10.281 8.70725 10 8 10H4C3.29276 10 2.61448 10.281 2.11438 10.781C1.61429 11.2811 1.33334 11.9594 1.33334 12.6667V14M14.6667 13.9999V12.6666C14.6662 12.0757 14.4696 11.5018 14.1076 11.0348C13.7456 10.5678 13.2388 10.2343 12.6667 10.0866M10.6667 2.08659C11.2403 2.23346 11.7487 2.56706 12.1118 3.0348C12.4748 3.50254 12.6719 4.07781 12.6719 4.66992C12.6719 5.26204 12.4748 5.83731 12.1118 6.30505C11.7487 6.77279 11.2403 7.10639 10.6667 7.25326M8.66667 4.66667C8.66667 6.13943 7.47276 7.33333 6 7.33333C4.52724 7.33333 3.33334 6.13943 3.33334 4.66667C3.33334 3.19391 4.52724 2 6 2C7.47276 2 8.66667 3.19391 8.66667 4.66667Z" stroke="black" stroke-linecap="round" stroke-linejoin="round"/>
</svg>
