<svg width="32" height="32" viewBox="0 0 32 32" fill="none" xmlns="http://www.w3.org/2000/svg">
<path d="M0 8C0 3.58172 3.58172 0 8 0H24C28.4183 0 32 3.58172 32 8V24C32 28.4183 28.4183 32 24 32H8C3.58172 32 0 28.4183 0 24V8Z" fill="#DF6920"/>
<path d="M12.6667 9.33301H19.3333M11.3333 11.9997H20.6667M11.3333 14.6663H20.6667C21.403 14.6663 22 15.2633 22 15.9997V21.333C22 22.0694 21.403 22.6663 20.6667 22.6663H11.3333C10.597 22.6663 10 22.0694 10 21.333V15.9997C10 15.2633 10.597 14.6663 11.3333 14.6663Z" stroke="#F8FAFC" stroke-linecap="round" stroke-linejoin="round"/>
</svg>
