<svg width="12" height="12" viewBox="0 0 12 12" fill="none" xmlns="http://www.w3.org/2000/svg">
<path d="M11.3333 2.66669H5.33333M7.33333 9.33335H1.33333M7.33333 9.33335C7.33333 10.4379 8.22876 11.3334 9.33333 11.3334C10.4379 11.3334 11.3333 10.4379 11.3333 9.33335C11.3333 8.22878 10.4379 7.33335 9.33333 7.33335C8.22876 7.33335 7.33333 8.22878 7.33333 9.33335ZM4.66666 2.66669C4.66666 3.77126 3.77123 4.66669 2.66666 4.66669C1.56209 4.66669 0.666664 3.77126 0.666664 2.66669C0.666664 1.56212 1.56209 0.666687 2.66666 0.666687C3.77123 0.666687 4.66666 1.56212 4.66666 2.66669Z" stroke="#334155" stroke-linecap="round" stroke-linejoin="round"/>
</svg>
